HIERARCHY
ROOT Hips
{
  OFFSET 14.6253 96.732 116.09
  CHANNELS 6 Xposition Yposition Zposition Zrotation Xrotation Yrotation
  JOINT RightUpLeg
  {
    OFFSET -8.9458 -8.66707 0.101652
    CHANNELS 3 Zrotation Xrotation Yrotation
    JOINT RightLeg
    {
      OFFSET 0 -44.4227 1.3727
      CHANNELS 3 Zrotation Xrotation Yrotation
      JOINT RightFoot
      {
        OFFSET 0.253549 -42.0924 -1.46059
        CHANNELS 3 Zrotation Xrotation Yrotation
        JOINT RightToes
        {
          OFFSET 0.04 -4.41509 8.4991
          CHANNELS 3 Zrotation Xrotation Yrotation
          End Site
          {
            OFFSET -0.08 -0.137448 9.77979
          }
        }
      }
    }
  }
  JOINT Spine
  {
    OFFSET 0 11.8905 0
    CHANNELS 3 Zrotation Xrotation Yrotation
    JOINT Spine1
    {
      OFFSET 0 25.6574 0.127663
      CHANNELS 3 Zrotation Xrotation Yrotation
      JOINT HEad
      {
        OFFSET 0 8.73416 0.011341
        CHANNELS 3 Zrotation Xrotation Yrotation
        End Site
        {
          OFFSET -0.29 12.7742 2.51395
        }
      }
      JOINT LeftShoulder1
      {
        OFFSET 8.99 -0.362252 -0.22
        CHANNELS 3 Zrotation Xrotation Yrotation
        JOINT LeftArm
        {
          OFFSET 10.2827 -0.00338 0.322123
          CHANNELS 3 Zrotation Xrotation Yrotation
          JOINT LeftForeArm
          {
            OFFSET 32.7669 0.099144 -1.42434
            CHANNELS 3 Zrotation Xrotation Yrotation
            JOINT LeftHand
            {
              OFFSET 27.5643 0.085362 1.02216
              CHANNELS 3 Zrotation Xrotation Yrotation
              End Site
              {
                OFFSET 16.7443 -0.6 1.50291
              }
            }
          }
        }
      }
      JOINT RightShoulder
      {
        OFFSET -8.99 -0.362252 -0.22
        CHANNELS 3 Zrotation Xrotation Yrotation
        JOINT RightArm
        {
          OFFSET -10.2827 -0.00338 0.322123
          CHANNELS 3 Zrotation Xrotation Yrotation
          JOINT RightForeArm
          {
            OFFSET -32.8971 0.099144 -1.42434
            CHANNELS 3 Zrotation Xrotation Yrotation
            JOINT RightHand
            {
              OFFSET -27.4921 0.085362 1.02216
              CHANNELS 3 Zrotation Xrotation Yrotation
              End Site
              {
                OFFSET -16.6312 -0.6 1.50291
              }
            }
          }
        }
      }
    }
  }
  JOINT LeftUpLeg
  {
    OFFSET 8.9458 -8.66707 0.101652
    CHANNELS 3 Zrotation Xrotation Yrotation
    JOINT LeftLeg
    {
      OFFSET 0 -44.4227 1.3727
      CHANNELS 3 Zrotation Xrotation Yrotation
      JOINT LeftFoot
      {
        OFFSET -0.253549 -42.0924 -1.46059
        CHANNELS 3 Zrotation Xrotation Yrotation
        JOINT LeftToes
        {
          OFFSET -0.04 -4.41509 8.4991
          CHANNELS 3 Zrotation Xrotation Yrotation
          End Site
          {
            OFFSET 0.08 -0.047448 9.77979
          }
        }
      }
    }
  }
}
MOTION
Frames:	9
Frame Time:	0.0166667
27.9402 91.0145 122.095 2.44263 15.8233 175.645 -8.40179 15.1473 4.7562 10.2822 47.8823 -5.31818 3.26232 -4.55206 -0.240254 -45.6429 -52.5411 -21.5086 3.34989 4.83721 2.89555 4.6888 10.4639 6.70057 -7.01624 8.73161 10.8571 -1.08089e-015 0 -7.95139e-016 -57.2089 -37.1607 9.92685 -8.54294 35.2778 -114.364 25.698 2.12574 -29.8945 20.4342 4.2141 16.1373 66.0815 -16.3969 26.606 -16.1632 29.639 143.4 -10.4463 13.5268 -45.9553 16.2373 -13.7995 -1.72956 12.2765 30.7706 -39.1573 -16.2521 -4.35664 0.483989 8.82151 -11.3313 1.41244 
28.5968 91.3764 122.656 2.27717 15.6713 175.695 -7.91648 14.9046 4.61713 10.2974 47.3868 -6.01191 2.70757 -4.81237 -0.220664 -44.8358 -52.1603 -20.8568 3.22603 4.97015 2.9699 4.44643 10.7089 6.8461 -7.42627 8.77419 11.1644 -1.50331e-015 -1.98785e-016 -1.59028e-015 -57.4073 -37.3558 9.21126 -8.29591 35.0998 -114.968 25.8808 2.09772 -29.767 20.3165 4.20878 16.199 66.4047 -16.6324 27.003 -16.5343 29.7522 143.457 -10.4514 13.54 -46.0743 16.264 -14.205 -1.41754 11.6723 30.3823 -37.1592 -16.0449 -1.87088 0.812874 8.65089 -11.0228 1.79329 
29.1859 91.9077 123.158 2.02667 15.3544 175.635 -7.52561 14.4743 4.60801 10.1878 46.7645 -6.56589 2.22267 -4.86585 -0.207853 -43.6638 -51.4793 -20.0902 3.01298 5.09039 3.09277 4.08019 10.9072 7.0711 -7.9699 8.83861 11.5408 7.95139e-016 -4.96962e-017 -1.59028e-015 -57.3207 -37.732 9.01173 -7.9685 34.8855 -115.901 25.7278 2.17052 -29.6709 20.0945 4.18259 16.2459 66.7609 -16.6192 27.1729 -16.8178 29.8067 143.505 -10.3478 13.5206 -46.2808 16.1817 -14.6608 -1.04288 10.8037 30.0835 -34.3142 -15.9429 0.386733 1.10876 7.95537 -10.0635 2.11004 
29.7024 92.5838 123.596 1.72698 14.8998 175.55 -7.23981 13.892 4.66428 10.0254 46.0487 -6.82363 1.97816 -4.66556 -0.204008 -42.239 -50.5829 -19.2252 2.72387 5.19789 3.24209 3.63452 11.0581 7.32727 -8.57515 8.87279 11.9463 -5.71506e-016 0 1.59028e-015 -57.0337 -38.2499 9.16644 -7.65476 34.694 -117 25.2981 2.31486 -29.645 19.8175 4.1501 16.3061 67.0672 -16.4439 27.1301 -16.9199 29.8904 143.51 -10.2356 13.4966 -46.4762 16.0095 -15.2144 -0.611494 9.70821 30.0446 -30.9024 -15.9136 2.09087 1.33301 6.79428 -8.55421 2.26728 
30.1495 93.3709 123.974 1.41974 14.3355 175.522 -7.03954 13.1731 4.6997 9.86528 45.3024 -6.73979 2.11399 -4.16971 -0.213488 -40.7047 -49.5799 -18.2973 2.37921 5.30204 3.40604 3.1644 11.1835 7.58918 -9.13629 8.80798 12.2862 0 0 -0 -56.7577 -38.679 9.33052 -7.37424 34.4597 -118.146 24.8308 2.47263 -29.6111 19.515 4.11532 16.3765 67.2674 -16.1329 26.9364 -16.839 29.9649 143.443 -10.221 13.5 -46.5722 15.7495 -15.8968 -0.0789064 8.51068 30.4233 -27.6075 -15.9055 2.94952 1.44617 5.41728 -6.79567 2.32117 
30.5379 94.2287 124.304 1.14883 13.6894 175.614 -6.88282 12.3152 4.63893 9.75393 44.6135 -6.34386 2.72888 -3.41689 -0.245325 -39.1115 -48.4937 -17.3403 2.0065 5.41839 3.57799 2.72022 11.3211 7.84761 -9.54752 8.58696 12.4625 3.47873e-016 -7.95139e-016 -1.59028e-015 -56.7459 -38.7683 9.09559 -7.07408 34.0782 -119.263 24.6133 2.57704 -29.4606 19.1883 4.07358 16.4351 67.3817 -15.756 26.6731 -16.665 29.9768 143.343 -10.2995 13.5288 -46.5625 15.3637 -16.7134 0.656635 7.47167 31.2921 -25.3115 -15.9776 2.97747 1.45668 4.25967 -5.32314 2.34291 
30.8848 95.1155 124.605 0.944031 12.9881 175.852 -6.72964 11.3107 4.45688 9.71852 44.0587 -5.73029 3.8412 -2.47122 -0.312212 -37.5061 -47.3173 -16.4417 1.61782 5.55961 3.7453 2.32233 11.5023 8.08435 -9.75334 8.1811 12.4695 9.93923e-017 -7.95139e-016 -3.18055e-015 -57.1139 -38.4973 8.22809 -6.74038 33.5555 -120.24 24.7128 2.59838 -29.2329 18.8588 4.03285 16.5019 67.4493 -15.4766 26.3969 -16.5044 29.9588 143.287 -10.3599 13.5455 -46.4966 14.8027 -17.644 1.64693 6.84972 32.6242 -24.5392 -16.2412 2.58686 1.42863 3.73143 -4.66367 2.25081 
31.2119 95.9909 124.896 0.819125 12.2526 176.228 -6.56182 10.1647 4.17542 9.78592 43.6539 -5.07494 5.29267 -1.27258 -0.425675 -36.1193 -46.199 -15.7839 1.1933 5.72873 3.88883 1.9613 11.7321 8.26084 -9.74813 7.59915 12.4091 0 7.95139e-016 -0 -57.7621 -38.1386 6.77761 -6.45879 33.0762 -120.915 24.9145 2.56706 -29.0945 18.6161 4.02765 16.6679 67.43 -15.4578 26.1197 -16.4024 29.9858 143.305 -10.3381 13.5276 -46.3938 14.0616 -18.6689 2.78999 6.73535 34.3961 -25.1803 -16.7884 2.10012 1.41012 3.78098 -4.7579 1.98859 
31.5401 96.8162 125.19 0.782035 11.4965 176.714 -6.3859 8.90009 3.81229 10.003 43.3697 -4.54586 6.79992 0.297555 -0.592715 -35.2301 -45.3938 -15.4927 0.708817 5.92097 3.99799 1.62227 11.9983 8.3496 -9.56093 6.8763 12.3877 4.41391e-032 -7.95139e-016 3.18055e-015 -58.5504 -37.9889 4.87362 -6.30962 32.8705 -121.215 25.0391 2.5315 -29.0788 18.5248 4.08302 16.9999 67.2779 -15.7515 25.8532 -16.3295 30.1256 143.355 -10.3437 13.5116 -46.2008 13.2034 -19.7647 3.85397 7.00787 36.6119 -26.6706 -17.6854 1.39403 1.38329 3.83917 -4.86178 1.74455 
